<?xml version="1.0" standalone="no"?>
<!DOCTYPE svg PUBLIC "-//W3C//DTD SVG 20010904//EN"
 "http://www.w3.org/TR/2001/REC-SVG-20010904/DTD/svg10.dtd">
<svg version="1.0" xmlns="http://www.w3.org/2000/svg"
 width="3500.000000pt" height="2500.000000pt" viewBox="0 0 3500.000000 2500.000000"
 preserveAspectRatio="xMidYMid meet">

<g transform="translate(0.000000,2500.000000) scale(0.100000,-0.100000)"
fill="#000000" stroke="none">
<path d="M30263 20222 c-105 -124 -134 -158 -183 -209 -44 -46 -50 -64 -21
-56 16 4 19 1 14 -16 -5 -18 -1 -20 28 -15 65 9 104 10 131 3 20 -5 33 -3 44
8 14 14 16 14 21 -6 8 -32 23 -14 23 27 -1 20 3 62 9 92 30 171 38 270 24 270
-5 -1 -45 -44 -90 -98z"/>
<path d="M29225 20100 c-4 -6 27 -68 68 -138 75 -128 213 -367 248 -429 11
-19 19 -40 19 -49 0 -8 -35 -52 -77 -96 -43 -44 -94 -97 -113 -117 -95 -100
-256 -275 -263 -286 -4 -8 -3 -16 2 -19 5 -4 158 21 339 54 182 33 337 58 344
55 7 -3 85 -132 173 -287 173 -305 191 -332 198 -308 7 21 45 354 61 533 8 82
18 152 22 157 7 6 317 67 648 128 22 4 41 12 43 18 3 10 -399 189 -467 209
l-25 7 23 -17 c28 -20 28 -32 1 -40 -12 -4 -36 -23 -53 -43 -17 -19 -57 -48
-89 -63 -51 -24 -69 -27 -140 -25 -100 3 -158 26 -220 88 -24 24 -56 70 -72
101 -26 54 -27 64 -23 147 3 50 2 90 -3 90 -5 0 -9 5 -9 11 0 6 6 9 14 6 8 -3
20 2 28 10 11 14 11 16 -4 10 -11 -4 -60 15 -130 50 -120 59 -529 253 -534
253 -2 0 -6 -5 -9 -10z"/>
<path d="M29989 19903 c-13 -16 -12 -17 4 -4 16 13 21 21 13 21 -2 0 -10 -8
-17 -17z"/>
<path d="M23687 17808 c-8 -13 -35 -43 -59 -68 -25 -25 -82 -88 -127 -140
-101 -118 -92 -108 -115 -124 -10 -7 -17 -19 -14 -27 4 -10 14 -4 38 21 l33
35 -5 -31 -4 -31 94 0 c88 0 94 1 109 24 10 16 19 20 23 13 14 -22 33 55 46
185 1 11 6 49 12 85 5 36 8 68 5 73 -8 13 -20 8 -36 -15z"/>
<path d="M22586 17622 c-3 -5 30 -70 74 -145 160 -279 262 -467 258 -476 -1
-6 -44 -52 -93 -103 -274 -281 -395 -418 -370 -418 7 0 394 70 528 96 70 13
138 24 151 24 21 0 35 -19 92 -117 37 -65 102 -176 145 -248 42 -71 91 -155
107 -185 17 -30 36 -55 44 -55 13 0 14 5 59 468 18 182 26 230 38 236 9 4 166
34 349 67 238 42 332 62 332 71 0 8 -8 16 -17 20 -10 3 -83 33 -163 66 -201
83 -250 99 -243 81 4 -11 -1 -13 -24 -8 -25 5 -33 1 -57 -30 -34 -46 -85 -78
-156 -100 -46 -14 -66 -15 -120 -7 -176 28 -293 157 -291 319 1 30 7 68 15 85
28 65 28 67 -7 67 -20 0 -68 19 -122 48 -98 52 -509 252 -518 252 -3 0 -8 -4
-11 -8z m649 -322 c3 -6 -1 -7 -9 -4 -18 7 -21 14 -7 14 6 0 13 -4 16 -10z"/>
<path d="M23660 17434 c0 -8 5 -12 10 -9 6 3 10 10 10 16 0 5 -4 9 -10 9 -5 0
-10 -7 -10 -16z"/>
<path d="M23305 17390 c-3 -5 -1 -10 4 -10 6 0 11 5 11 10 0 6 -2 10 -4 10 -3
0 -8 -4 -11 -10z"/>
<path d="M3603 15633 c53 -2 141 -2 195 0 53 1 9 3 -98 3 -107 0 -151 -2 -97
-3z"/>
<path d="M3398 15623 c12 -2 30 -2 40 0 9 3 -1 5 -23 4 -22 0 -30 -2 -17 -4z"/>
<path d="M3968 15623 c12 -2 30 -2 40 0 9 3 -1 5 -23 4 -22 0 -30 -2 -17 -4z"/>
<path d="M3293 15613 c9 -2 25 -2 35 0 9 3 1 5 -18 5 -19 0 -27 -2 -17 -5z"/>
<path d="M4073 15613 c9 -2 23 -2 30 0 6 3 -1 5 -18 5 -16 0 -22 -2 -12 -5z"/>
<path d="M3218 15603 c6 -2 18 -2 25 0 6 3 1 5 -13 5 -14 0 -19 -2 -12 -5z"/>
<path d="M4148 15603 c6 -2 18 -2 25 0 6 3 1 5 -13 5 -14 0 -19 -2 -12 -5z"/>
<path d="M3148 15593 c6 -2 18 -2 25 0 6 3 1 5 -13 5 -14 0 -19 -2 -12 -5z"/>
<path d="M4218 15593 c7 -3 16 -2 19 1 4 3 -2 6 -13 5 -11 0 -14 -3 -6 -6z"/>
<path d="M21913 15593 c43 -2 110 -2 150 0 40 1 5 3 -78 3 -82 0 -115 -2 -72
-3z"/>
<path d="M3088 15583 c6 -2 18 -2 25 0 6 3 1 5 -13 5 -14 0 -19 -2 -12 -5z"/>
<path d="M4278 15583 c7 -3 16 -2 19 1 4 3 -2 6 -13 5 -11 0 -14 -3 -6 -6z"/>
<path d="M21743 15583 c9 -2 25 -2 35 0 9 3 1 5 -18 5 -19 0 -27 -2 -17 -5z"/>
<path d="M22203 15583 c9 -2 25 -2 35 0 9 3 1 5 -18 5 -19 0 -27 -2 -17 -5z"/>
<path d="M3038 15573 c7 -3 16 -2 19 1 4 3 -2 6 -13 5 -11 0 -14 -3 -6 -6z"/>
<path d="M4328 15573 c7 -3 16 -2 19 1 4 3 -2 6 -13 5 -11 0 -14 -3 -6 -6z"/>
<path d="M7753 15573 c262 -2 692 -2 955 0 262 1 47 2 -478 2 -525 0 -740 -1
-477 -2z"/>
<path d="M11138 15573 c84 -2 219 -2 300 0 81 1 12 3 -153 3 -165 0 -231 -2
-147 -3z"/>
<path d="M16978 15573 c39 -2 105 -2 145 0 39 1 7 3 -73 3 -80 0 -112 -2 -72
-3z"/>
<path d="M21668 15573 c6 -2 18 -2 25 0 6 3 1 5 -13 5 -14 0 -19 -2 -12 -5z"/>
<path d="M22293 15573 c9 -2 23 -2 30 0 6 3 -1 5 -18 5 -16 0 -22 -2 -12 -5z"/>
<path d="M4378 15563 c7 -3 16 -2 19 1 4 3 -2 6 -13 5 -11 0 -14 -3 -6 -6z"/>
<path d="M9580 15566 c0 -2 8 -10 18 -17 15 -13 16 -12 3 4 -13 16 -21 21 -21
13z"/>
<path d="M12608 15563 c6 -2 18 -2 25 0 6 3 1 5 -13 5 -14 0 -19 -2 -12 -5z"/>
<path d="M16512 15563 c37 -2 100 -2 140 0 40 1 10 3 -67 3 -77 0 -110 -1 -73
-3z"/>
<path d="M17210 15560 c8 -5 20 -10 25 -10 6 0 3 5 -5 10 -8 5 -19 10 -25 10
-5 0 -3 -5 5 -10z"/>
<path d="M21608 15563 c7 -3 16 -2 19 1 4 3 -2 6 -13 5 -11 0 -14 -3 -6 -6z"/>
<path d="M22368 15563 c7 -3 16 -2 19 1 4 3 -2 6 -13 5 -11 0 -14 -3 -6 -6z"/>
<path d="M2938 15553 c7 -3 16 -2 19 1 4 3 -2 6 -13 5 -11 0 -14 -3 -6 -6z"/>
<path d="M4418 15553 c7 -3 16 -2 19 1 4 3 -2 6 -13 5 -11 0 -14 -3 -6 -6z"/>
<path d="M12668 15553 c6 -2 18 -2 25 0 6 3 1 5 -13 5 -14 0 -19 -2 -12 -5z"/>
<path d="M16098 15553 c29 -2 74 -2 100 0 26 2 2 3 -53 3 -55 0 -76 -1 -47 -3z"/>
<path d="M21548 15553 c7 -3 16 -2 19 1 4 3 -2 6 -13 5 -11 0 -14 -3 -6 -6z"/>
<path d="M22408 15553 c7 -3 16 -2 19 1 4 3 -2 6 -13 5 -11 0 -14 -3 -6 -6z"/>
<path d="M2888 15543 c7 -3 16 -2 19 1 4 3 -2 6 -13 5 -11 0 -14 -3 -6 -6z"/>
<path d="M12728 15543 c7 -3 16 -2 19 1 4 3 -2 6 -13 5 -11 0 -14 -3 -6 -6z"/>
<path d="M21508 15543 c7 -3 16 -2 19 1 4 3 -2 6 -13 5 -11 0 -14 -3 -6 -6z"/>
<path d="M22448 15543 c7 -3 16 -2 19 1 4 3 -2 6 -13 5 -11 0 -14 -3 -6 -6z"/>
<path d="M10879 15523 c-13 -16 -12 -17 4 -4 9 7 17 15 17 17 0 8 -8 3 -21
-13z"/>
<path d="M16009 15523 c-13 -16 -12 -17 4 -4 9 7 17 15 17 17 0 8 -8 3 -21
-13z"/>
<path d="M17280 15530 c8 -5 20 -10 25 -10 6 0 3 5 -5 10 -8 5 -19 10 -25 10
-5 0 -3 -5 5 -10z"/>
<path d="M22488 15533 c7 -3 16 -2 19 1 4 3 -2 6 -13 5 -11 0 -14 -3 -6 -6z"/>
<path d="M9662 15495 l38 -40 3 -260 2 -260 3 260 2 261 -42 39 -43 40 37 -40z"/>
<path d="M12818 15523 c7 -3 16 -2 19 1 4 3 -2 6 -13 5 -11 0 -14 -3 -6 -6z"/>
<path d="M22528 15523 c7 -3 16 -2 19 1 4 3 -2 6 -13 5 -11 0 -14 -3 -6 -6z"/>
<path d="M4578 15513 c7 -3 16 -2 19 1 4 3 -2 6 -13 5 -11 0 -14 -3 -6 -6z"/>
<path d="M12858 15513 c7 -3 16 -2 19 1 4 3 -2 6 -13 5 -11 0 -14 -3 -6 -6z"/>
<path d="M22568 15513 c7 -3 16 -2 19 1 4 3 -2 6 -13 5 -11 0 -14 -3 -6 -6z"/>
<path d="M2750 15500 c-8 -5 -10 -10 -5 -10 6 0 17 5 25 10 8 5 11 10 5 10 -5
0 -17 -5 -25 -10z"/>
<path d="M15964 15488 l-19 -23 23 19 c12 11 22 21 22 23 0 8 -8 2 -26 -19z"/>
<path d="M17346 15497 c3 -10 9 -15 12 -12 3 3 0 11 -7 18 -10 9 -11 8 -5 -6z"/>
<path d="M22608 15503 c7 -3 16 -2 19 1 4 3 -2 6 -13 5 -11 0 -14 -3 -6 -6z"/>
<path d="M22818 15453 c7 -3 16 -2 19 1 4 3 -2 6 -13 5 -11 0 -14 -3 -6 -6z"/>
<path d="M2610 15440 c-8 -5 -10 -10 -5 -10 6 0 17 5 25 10 8 5 11 10 5 10 -5
0 -17 -5 -25 -10z"/>
<path d="M22858 15443 c7 -3 16 -2 19 1 4 3 -2 6 -13 5 -11 0 -14 -3 -6 -6z"/>
<path d="M10800 15410 c-12 -16 -19 -30 -16 -30 2 0 14 14 26 30 12 17 19 30
16 30 -2 0 -14 -13 -26 -30z"/>
<path d="M22898 15433 c7 -3 16 -2 19 1 4 3 -2 6 -13 5 -11 0 -14 -3 -6 -6z"/>
<path d="M17371 15414 c0 -11 3 -14 6 -6 3 7 2 16 -1 19 -3 4 -6 -2 -5 -13z"/>
<path d="M21130 15420 c-8 -5 -10 -10 -5 -10 6 0 17 5 25 10 8 5 11 10 5 10
-5 0 -17 -5 -25 -10z"/>
<path d="M22931 15426 c2 -2 15 -9 29 -15 24 -11 24 -11 6 3 -16 13 -49 24
-35 12z"/>
<path d="M22990 15398 c0 -2 21 -21 48 -43 26 -21 38 -28 27 -16 -19 23 -75
66 -75 59z"/>
<path d="M13221 15386 c10 -9 89 -46 89 -41 0 5 -75 45 -86 45 -4 0 -5 -2 -3
-4z"/>
<path d="M15901 15374 c0 -11 3 -14 6 -6 3 7 2 16 -1 19 -3 4 -6 -2 -5 -13z"/>
<path d="M17381 15374 c0 -11 3 -14 6 -6 3 7 2 16 -1 19 -3 4 -6 -2 -5 -13z"/>
<path d="M2458 15364 c-38 -20 -36 -28 2 -9 17 9 30 18 30 20 0 7 -1 6 -32
-11z"/>
<path d="M4980 15370 c8 -5 20 -10 25 -10 6 0 3 5 -5 10 -8 5 -19 10 -25 10
-5 0 -3 -5 5 -10z"/>
<path d="M20978 15344 c-38 -20 -36 -28 2 -9 17 9 30 18 30 20 0 7 -1 6 -32
-11z"/>
<path d="M5120 15305 c36 -19 70 -34 75 -34 6 0 -19 15 -55 34 -36 19 -69 34
-75 34 -5 0 19 -15 55 -34z"/>
<path d="M10747 15333 c-4 -3 -7 -1475 -7 -3269 l0 -3263 30 -21 c47 -34 209
-107 280 -126 48 -14 99 -18 190 -18 107 1 137 5 205 27 89 29 213 97 281 152
l44 36 0 1095 0 1094 173 0 c601 0 1136 147 1562 428 112 74 335 284 442 417
270 334 425 707 474 1135 15 138 6 532 -15 659 -25 144 -47 225 -58 209 -5 -8
-6 -4 -3 13 4 17 -9 75 -40 168 -26 79 -48 141 -51 139 -2 -3 12 -51 31 -108
19 -57 35 -109 34 -114 0 -6 -13 25 -28 69 -25 72 -31 80 -52 78 -53 -6 -975
-186 -982 -193 -5 -4 -1 -34 7 -68 9 -33 16 -68 15 -78 0 -11 -9 14 -20 55
-10 41 -22 77 -25 80 -4 3 -4 -5 0 -19 51 -187 72 -408 56 -580 -45 -465 -192
-846 -411 -1071 -72 -74 -289 -165 -503 -211 -86 -19 -133 -22 -326 -22 -124
-1 -237 2 -252 7 l-28 7 0 1245 0 1245 514 -2 c283 -2 512 0 509 5 -2 4 -236
7 -519 7 l-514 0 -2 -607 c-1 -335 -4 -537 -7 -451 -4 86 -9 159 -11 161 -6 6
-959 -179 -968 -188 -4 -3 -9 -79 -13 -168 -3 -89 -5 336 -5 946 1 609 1 1107
0 1107 0 0 -4 -3 -7 -7z m2540 -1595 c-3 -7 -5 -2 -5 12 0 14 2 19 5 13 2 -7
2 -19 0 -25z m10 -60 c-3 -7 -5 -2 -5 12 0 14 2 19 5 13 2 -7 2 -19 0 -25z
m10 -105 c-3 -10 -5 -4 -5 12 0 17 2 24 5 18 2 -7 2 -21 0 -30z"/>
<path d="M2374 15314 c-18 -14 -18 -15 4 -4 12 6 22 13 22 15 0 8 -5 6 -26
-11z"/>
<path d="M13360 15316 c0 -3 9 -10 20 -16 11 -6 20 -8 20 -6 0 3 -9 10 -20 16
-11 6 -20 8 -20 6z"/>
<path d="M20914 15304 c-18 -14 -18 -15 4 -4 12 6 22 13 22 15 0 8 -5 6 -26
-11z"/>
<path d="M2313 15279 c-35 -22 -46 -37 -15 -20 22 13 58 40 52 41 -3 0 -20
-10 -37 -21z"/>
<path d="M13410 15287 c0 -2 26 -21 58 -41 31 -20 45 -27 30 -14 -30 26 -88
62 -88 55z"/>
<path d="M20864 15274 c-18 -14 -18 -15 4 -4 12 6 22 13 22 15 0 8 -5 6 -26
-11z"/>
<path d="M15871 15264 c0 -11 3 -14 6 -6 3 7 2 16 -1 19 -3 4 -6 -2 -5 -13z"/>
<path d="M17411 15264 c0 -11 3 -14 6 -6 3 7 2 16 -1 19 -3 4 -6 -2 -5 -13z"/>
<path d="M23140 15255 c13 -14 26 -25 28 -25 3 0 -5 11 -18 25 -13 14 -26 25
-28 25 -3 0 5 -11 18 -25z"/>
<path d="M15861 15224 c0 -11 3 -14 6 -6 3 7 2 16 -1 19 -3 4 -6 -2 -5 -13z"/>
<path d="M17421 15224 c0 -11 3 -14 6 -6 3 7 2 16 -1 19 -3 4 -6 -2 -5 -13z"/>
<path d="M20789 15223 c-13 -16 -12 -17 4 -4 16 13 21 21 13 21 -2 0 -10 -8
-17 -17z"/>
<path d="M2205 15204 l-30 -26 33 22 c17 12 32 23 32 26 0 7 -4 5 -35 -22z"/>
<path d="M23170 15216 c0 -2 8 -10 18 -17 15 -13 16 -12 3 4 -13 16 -21 21
-21 13z"/>
<path d="M13530 15207 c0 -3 17 -17 37 -33 20 -15 33 -23 29 -16 -8 13 -66 56
-66 49z"/>
<path d="M20744 15188 l-19 -23 23 19 c21 18 27 26 19 26 -2 0 -12 -10 -23
-22z"/>
<path d="M15851 15184 c0 -11 3 -14 6 -6 3 7 2 16 -1 19 -3 4 -6 -2 -5 -13z"/>
<path d="M2149 15163 c-13 -16 -12 -17 4 -4 16 13 21 21 13 21 -2 0 -10 -8
-17 -17z"/>
<path d="M6515 14425 c0 -418 1 -588 2 -377 2 211 2 553 0 760 -1 207 -2 35
-2 -383z"/>
<path d="M17441 15154 c0 -11 3 -14 6 -6 3 7 2 16 -1 19 -3 4 -6 -2 -5 -13z"/>
<path d="M20694 15148 l-19 -23 23 19 c21 18 27 26 19 26 -2 0 -12 -10 -23
-22z"/>
<path d="M2080 15109 l-45 -41 48 37 c41 33 53 45 45 45 -2 0 -23 -18 -48 -41z"/>
<path d="M13610 15147 c0 -2 15 -16 33 -33 l32 -29 -29 33 c-28 30 -36 37 -36
29z"/>
<path d="M23230 15130 c6 -11 13 -20 16 -20 2 0 0 9 -6 20 -6 11 -13 20 -16
20 -2 0 0 -9 6 -20z"/>
<path d="M17451 15114 c0 -11 3 -14 6 -6 3 7 2 16 -1 19 -3 4 -6 -2 -5 -13z"/>
<path d="M20629 15093 l-34 -38 38 34 c34 33 42 41 34 41 -2 0 -19 -17 -38
-37z"/>
<path d="M13745 15020 c38 -38 72 -70 74 -70 3 0 -26 32 -64 70 -38 39 -72 70
-74 70 -3 0 26 -31 64 -70z"/>
<path d="M15821 15074 c0 -11 3 -14 6 -6 3 7 2 16 -1 19 -3 4 -6 -2 -5 -13z"/>
<path d="M23271 15060 c14 -31 19 -36 19 -24 0 6 -7 19 -16 30 -14 18 -14 18
-3 -6z"/>
<path d="M1985 15028 l-40 -43 43 40 c23 21 42 40 42 42 0 8 -9 0 -45 -39z"/>
<path d="M20470 14943 l-115 -118 118 115 c109 107 122 120 114 120 -1 0 -54
-53 -117 -117z"/>
<path d="M15811 15034 c0 -11 3 -14 6 -6 3 7 2 16 -1 19 -3 4 -6 -2 -5 -13z"/>
<path d="M5281 15010 c0 -8 4 -24 9 -35 5 -13 9 -14 9 -5 0 8 -4 24 -9 35 -5
13 -9 14 -9 5z"/>
<path d="M17481 15004 c0 -11 3 -14 6 -6 3 7 2 16 -1 19 -3 4 -6 -2 -5 -13z"/>
<path d="M23301 14995 c0 -5 6 -21 14 -35 8 -14 14 -20 14 -15 0 6 -6 21 -14
35 -8 14 -14 21 -14 15z"/>
<path d="M1870 14923 l-65 -68 68 65 c37 35 67 66 67 67 0 8 -10 -2 -70 -64z"/>
<path d="M17491 14964 c0 -11 3 -14 6 -6 3 7 2 16 -1 19 -3 4 -6 -2 -5 -13z"/>
<path d="M5301 14940 c0 -8 4 -24 9 -35 5 -13 9 -14 9 -5 0 8 -4 24 -9 35 -5
13 -9 14 -9 5z"/>
<path d="M13820 14937 c0 -2 15 -16 33 -33 l32 -29 -29 33 c-28 30 -36 37 -36
29z"/>
<path d="M15781 14924 c0 -11 3 -14 6 -6 3 7 2 16 -1 19 -3 4 -6 -2 -5 -13z"/>
<path d="M23336 14910 c3 -14 11 -32 16 -40 6 -10 7 -7 2 10 -3 14 -11 32 -16
40 -6 10 -7 7 -2 -10z"/>
<path d="M17511 14894 c0 -11 3 -14 6 -6 3 7 2 16 -1 19 -3 4 -6 -2 -5 -13z"/>
<path d="M15771 14884 c0 -11 3 -14 6 -6 3 7 2 16 -1 19 -3 4 -6 -2 -5 -13z"/>
<path d="M5321 14864 c0 -11 3 -14 6 -6 3 7 2 16 -1 19 -3 4 -6 -2 -5 -13z"/>
<path d="M13919 14818 c24 -32 45 -58 48 -58 7 0 -59 89 -76 103 -8 7 5 -14
28 -45z"/>
<path d="M17521 14854 c0 -11 3 -14 6 -6 3 7 2 16 -1 19 -3 4 -6 -2 -5 -13z"/>
<path d="M15761 14844 c0 -11 3 -14 6 -6 3 7 2 16 -1 19 -3 4 -6 -2 -5 -13z"/>
<path d="M1765 14808 l-40 -43 43 40 c23 21 42 40 42 42 0 8 -9 0 -45 -39z"/>
<path d="M5332 14825 c0 -11 4 -31 8 -45 6 -20 8 -21 8 -5 0 11 -4 31 -8 45
-6 20 -8 21 -8 5z"/>
<path d="M17531 14814 c0 -11 3 -14 6 -6 3 7 2 16 -1 19 -3 4 -6 -2 -5 -13z"/>
<path d="M20324 14788 c-56 -63 -77 -88 -72 -88 3 0 28 27 57 60 55 63 66 83
15 28z"/>
<path d="M23372 14815 c0 -5 6 -26 13 -45 7 -19 14 -28 14 -20 0 8 -6 29 -14
45 -7 17 -13 26 -13 20z"/>
<path d="M15741 14774 c0 -11 3 -14 6 -6 3 7 2 16 -1 19 -3 4 -6 -2 -5 -13z"/>
<path d="M1683 14713 c-46 -56 -102 -132 -86 -118 17 15 134 165 129 165 -2 0
-22 -21 -43 -47z"/>
<path d="M17551 14744 c0 -11 3 -14 6 -6 3 7 2 16 -1 19 -3 4 -6 -2 -5 -13z"/>
<path d="M5352 14725 c0 -16 2 -22 5 -12 2 9 2 23 0 30 -3 6 -5 -1 -5 -18z"/>
<path d="M13995 14713 c15 -24 30 -43 32 -43 7 0 -31 61 -46 73 -8 7 -2 -7 14
-30z"/>
<path d="M15731 14734 c0 -11 3 -14 6 -6 3 7 2 16 -1 19 -3 4 -6 -2 -5 -13z"/>
<path d="M17561 14704 c0 -11 3 -14 6 -6 3 7 2 16 -1 19 -3 4 -6 -2 -5 -13z"/>
<path d="M15721 14694 c0 -11 3 -14 6 -6 3 7 2 16 -1 19 -3 4 -6 -2 -5 -13z"/>
<path d="M23411 14684 c0 -11 3 -14 6 -6 3 7 2 16 -1 19 -3 4 -6 -2 -5 -13z"/>
<path d="M5362 14660 c0 -19 2 -27 5 -17 2 9 2 25 0 35 -3 9 -5 1 -5 -18z"/>
<path d="M20209 14648 c-50 -66 -52 -68 -46 -68 2 0 23 25 46 55 23 30 40 55
37 55 -2 0 -19 -19 -37 -42z"/>
<path d="M17571 14670 c0 -8 4 -24 9 -35 5 -13 9 -14 9 -5 0 8 -4 24 -9 35 -5
13 -9 14 -9 5z"/>
<path d="M14040 14640 c6 -11 13 -20 16 -20 2 0 0 9 -6 20 -6 11 -13 20 -16
20 -2 0 0 -9 6 -20z"/>
<path d="M23421 14644 c0 -11 3 -14 6 -6 3 7 2 16 -1 19 -3 4 -6 -2 -5 -13z"/>
<path d="M15701 14624 c0 -11 3 -14 6 -6 3 7 2 16 -1 19 -3 4 -6 -2 -5 -13z"/>
<path d="M5372 14515 c-2 -95 -15 -190 -36 -260 -4 -11 0 -6 8 10 24 49 37
153 34 260 l-4 100 -2 -110z"/>
<path d="M23431 14604 c0 -11 3 -14 6 -6 3 7 2 16 -1 19 -3 4 -6 -2 -5 -13z"/>
<path d="M14075 14580 c9 -16 18 -30 21 -30 2 0 -2 14 -11 30 -9 17 -18 30
-21 30 -2 0 2 -13 11 -30z"/>
<path d="M17591 14594 c0 -11 3 -14 6 -6 3 7 2 16 -1 19 -3 4 -6 -2 -5 -13z"/>
<path d="M15691 14584 c0 -11 3 -14 6 -6 3 7 2 16 -1 19 -3 4 -6 -2 -5 -13z"/>
<path d="M1532 14508 c-55 -83 -70 -108 -55 -93 16 16 114 165 109 165 -3 0
-27 -33 -54 -72z"/>
<path d="M23442 14560 c0 -14 2 -19 5 -12 2 6 2 18 0 25 -3 6 -5 1 -5 -13z"/>
<path d="M17601 14560 c0 -8 4 -24 9 -35 5 -13 9 -14 9 -5 0 8 -4 24 -9 35 -5
13 -9 14 -9 5z"/>
<path d="M20102 14498 c-55 -83 -70 -108 -55 -93 16 16 114 165 109 165 -3 0
-27 -33 -54 -72z"/>
<path d="M9640 14505 l-54 -55 -531 -3 -530 -2 530 -3 531 -2 59 60 c33 33 57
60 54 60 -2 0 -29 -25 -59 -55z"/>
<path d="M15681 14544 c0 -11 3 -14 6 -6 3 7 2 16 -1 19 -3 4 -6 -2 -5 -13z"/>
<path d="M3533 14533 c20 -2 54 -2 75 0 20 2 3 4 -38 4 -41 0 -58 -2 -37 -4z"/>
<path d="M3768 14533 c23 -2 59 -2 80 0 20 2 1 4 -43 4 -44 0 -61 -2 -37 -4z"/>
<path d="M14132 14475 c18 -35 34 -63 36 -61 4 5 -56 126 -63 126 -3 0 10 -29
27 -65z"/>
<path d="M3433 14523 c9 -2 25 -2 35 0 9 3 1 5 -18 5 -19 0 -27 -2 -17 -5z"/>
<path d="M3918 14523 c12 -2 30 -2 40 0 9 3 -1 5 -23 4 -22 0 -30 -2 -17 -4z"/>
<path d="M23452 14505 c0 -16 2 -22 5 -12 2 9 2 23 0 30 -3 6 -5 -1 -5 -18z"/>
<path d="M3368 14513 c6 -2 18 -2 25 0 6 3 1 5 -13 5 -14 0 -19 -2 -12 -5z"/>
<path d="M4003 14513 c9 -2 25 -2 35 0 9 3 1 5 -18 5 -19 0 -27 -2 -17 -5z"/>
<path d="M12911 14423 c145 -140 196 -216 308 -463 l11 -25 -6 25 c-11 48 -94
212 -145 286 -56 81 -157 188 -229 244 -25 19 3 -11 61 -67z"/>
<path d="M15671 14504 c0 -11 3 -14 6 -6 3 7 2 16 -1 19 -3 4 -6 -2 -5 -13z"/>
<path d="M3318 14503 c6 -2 18 -2 25 0 6 3 1 5 -13 5 -14 0 -19 -2 -12 -5z"/>
<path d="M4073 14503 c9 -2 23 -2 30 0 6 3 -1 5 -18 5 -16 0 -22 -2 -12 -5z"/>
<path d="M3225 14485 c-54 -17 -33 -18 30 -1 28 8 41 14 30 14 -11 0 -38 -5
-60 -13z"/>
<path d="M4133 14493 c9 -2 25 -2 35 0 9 3 1 5 -18 5 -19 0 -27 -2 -17 -5z"/>
<path d="M17621 14484 c0 -11 3 -14 6 -6 3 7 2 16 -1 19 -3 4 -6 -2 -5 -13z"/>
<path d="M4208 14483 c6 -2 18 -2 25 0 6 3 1 5 -13 5 -14 0 -19 -2 -12 -5z"/>
<path d="M4258 14473 c6 -2 18 -2 25 0 6 3 1 5 -13 5 -14 0 -19 -2 -12 -5z"/>
<path d="M4345 14454 c28 -7 55 -13 60 -13 17 2 -69 27 -90 27 -11 0 3 -6 30
-14z"/>
<path d="M21933 14463 c15 -2 37 -2 50 0 12 2 0 4 -28 4 -27 0 -38 -2 -22 -4z"/>
<path d="M22153 14463 c15 -2 37 -2 50 0 12 2 0 4 -28 4 -27 0 -38 -2 -22 -4z"/>
<path d="M23462 14440 c0 -19 2 -27 5 -17 2 9 2 25 0 35 -3 9 -5 1 -5 -18z"/>
<path d="M17631 14444 c0 -11 3 -14 6 -6 3 7 2 16 -1 19 -3 4 -6 -2 -5 -13z"/>
<path d="M21863 14453 c9 -2 23 -2 30 0 6 3 -1 5 -18 5 -16 0 -22 -2 -12 -5z"/>
<path d="M22243 14453 c9 -2 25 -2 35 0 9 3 1 5 -18 5 -19 0 -27 -2 -17 -5z"/>
<path d="M3065 14431 c-22 -11 -35 -19 -30 -19 14 -1 93 36 80 37 -5 0 -28 -8
-50 -18z"/>
<path d="M15651 14434 c0 -11 3 -14 6 -6 3 7 2 16 -1 19 -3 4 -6 -2 -5 -13z"/>
<path d="M21808 14443 c6 -2 18 -2 25 0 6 3 1 5 -13 5 -14 0 -19 -2 -12 -5z"/>
<path d="M22308 14443 c6 -2 18 -2 25 0 6 3 1 5 -13 5 -14 0 -19 -2 -12 -5z"/>
<path d="M4484 14414 c38 -13 71 -22 73 -20 5 5 -116 46 -131 45 -6 0 20 -11
58 -25z"/>
<path d="M7743 14433 c65 -2 168 -2 230 0 62 1 9 3 -118 3 -126 0 -177 -2
-112 -3z"/>
<path d="M21768 14433 c7 -3 16 -2 19 1 4 3 -2 6 -13 5 -11 0 -14 -3 -6 -6z"/>
<path d="M22358 14433 c7 -3 16 -2 19 1 4 3 -2 6 -13 5 -11 0 -14 -3 -6 -6z"/>
<path d="M22398 14423 c7 -3 16 -2 19 1 4 3 -2 6 -13 5 -11 0 -14 -3 -6 -6z"/>
<path d="M17641 14410 c0 -8 4 -24 9 -35 5 -13 9 -14 9 -5 0 8 -4 24 -9 35 -5
13 -9 14 -9 5z"/>
<path d="M21680 14410 c-18 -12 -2 -12 25 0 13 6 15 9 5 9 -8 0 -22 -4 -30 -9z"/>
<path d="M22445 14410 c11 -5 27 -9 35 -9 9 0 8 4 -5 9 -11 5 -27 9 -35 9 -9
0 -8 -4 5 -9z"/>
<path d="M2958 14384 c-27 -13 -48 -27 -48 -29 0 -5 99 42 109 51 13 11 -20 0
-61 -22z"/>
<path d="M15641 14394 c0 -11 3 -14 6 -6 3 7 2 16 -1 19 -3 4 -6 -2 -5 -13z"/>
<path d="M1450 14380 c-6 -11 -8 -20 -6 -20 3 0 10 9 16 20 6 11 8 20 6 20 -3
0 -10 -9 -16 -20z"/>
<path d="M14171 14395 c0 -5 8 -26 19 -45 11 -19 19 -30 19 -25 0 6 -8 26 -19
45 -11 19 -19 31 -19 25z"/>
<path d="M23473 14365 c0 -22 2 -30 4 -17 2 12 2 30 0 40 -3 9 -5 -1 -4 -23z"/>
<path d="M4705 14322 c153 -75 230 -121 376 -224 53 -37 101 -68 107 -68 21 0
142 166 142 195 0 5 -16 -18 -36 -51 -19 -32 -52 -76 -74 -98 l-38 -39 -84 60
c-45 33 -121 84 -168 113 -85 53 -336 180 -355 180 -5 0 53 -31 130 -68z"/>
<path d="M20007 14348 c-35 -61 -51 -95 -40 -83 14 14 76 125 70 125 -3 0 -16
-19 -30 -42z"/>
<path d="M21590 14375 c-14 -8 -20 -14 -15 -14 6 0 21 6 35 14 14 8 21 14 15
14 -5 0 -21 -6 -35 -14z"/>
<path d="M7624 14130 c0 -140 2 -198 3 -127 2 70 2 184 0 255 -1 70 -3 12 -3
-128z"/>
<path d="M22561 14376 c8 -8 133 -56 136 -52 2 2 -26 15 -62 30 -62 25 -84 31
-74 22z"/>
<path d="M15631 14354 c0 -11 3 -14 6 -6 3 7 2 16 -1 19 -3 4 -6 -2 -5 -13z"/>
<path d="M1415 14320 c-9 -16 -13 -30 -11 -30 3 0 12 14 21 30 9 17 13 30 11
30 -3 0 -12 -13 -21 -30z"/>
<path d="M2874 14334 c-18 -14 -18 -15 4 -4 12 6 22 13 22 15 0 8 -5 6 -26
-11z"/>
<path d="M17661 14334 c0 -11 3 -14 6 -6 3 7 2 16 -1 19 -3 4 -6 -2 -5 -13z"/>
<path d="M21430 14293 c-90 -53 -297 -261 -380 -383 -36 -52 -95 -153 -132
-225 -72 -140 -86 -158 -38 -49 17 37 29 68 28 69 -3 2 -1181 -209 -1224 -219
-17 -5 -26 -25 -50 -121 -16 -64 -30 -112 -32 -106 -2 5 9 55 23 111 14 56 24
104 21 107 -5 6 -69 -263 -95 -402 -43 -236 -78 -518 -102 -840 -23 -315 24
-890 108 -1305 208 -1033 756 -1844 1483 -2194 299 -143 559 -200 915 -200
329 1 611 49 981 168 162 52 189 71 284 198 167 221 251 513 267 923 6 174 -6
289 -35 340 -28 47 -74 46 -138 -4 -29 -21 -206 -117 -395 -213 -464 -235
-588 -276 -859 -285 -169 -6 -286 10 -437 58 -131 42 -174 65 -263 141 -189
162 -331 345 -449 579 -177 351 -243 662 -292 1363 -15 222 -7 679 16 841 20
147 88 478 121 592 14 47 22 95 19 107 -2 11 -2 15 1 7 4 -7 24 33 45 90 152
406 368 690 665 876 45 28 3 10 -56 -24z m-589 -770 c-12 -20 -14 -14 -5 12 4
9 9 14 11 11 3 -2 0 -13 -6 -23z m-20 -50 c-12 -20 -14 -14 -5 12 4 9 9 14 11
11 3 -2 0 -13 -6 -23z m-1224 -255 c-3 -8 -6 -5 -6 6 -1 11 2 17 5 13 3 -3 4
-12 1 -19z"/>
<path d="M2807 14295 c-20 -14 -37 -28 -37 -31 0 -2 18 8 40 22 35 23 47 34
37 34 -1 0 -19 -11 -40 -25z"/>
<path d="M16576 14294 c-4 -15 -5 -29 -1 -32 3 -3 5 3 5 14 0 16 2 17 10 4 8
-12 10 -11 10 7 0 32 -17 37 -24 7z"/>
<path d="M22765 14288 c40 -20 101 -70 181 -147 142 -137 237 -205 315 -225
156 -40 232 65 227 313 -1 85 -1 84 -9 -34 -4 -66 -12 -131 -18 -145 -11 -26
-10 -12 5 88 3 17 4 32 2 32 -16 -1 -427 -80 -439 -84 -11 -5 -42 20 -103 84
-60 62 -105 99 -146 120 -33 17 -63 30 -67 30 -4 -1 19 -15 52 -32z m395 -303
c36 -25 61 -45 57 -45 -14 0 -153 99 -173 123 -14 16 -10 15 16 -6 19 -15 64
-48 100 -72z m276 -3 c-9 -17 -20 -33 -25 -36 -5 -4 0 12 12 33 25 46 36 48
13 3z m-149 -58 c-3 -3 -12 -4 -19 -1 -8 3 -5 6 6 6 11 1 17 -2 13 -5z"/>
<path d="M14211 14305 c0 -5 9 -28 20 -50 10 -22 16 -29 13 -15 -7 28 -33 80
-33 65z"/>
<path d="M17676 14280 c4 -19 11 -44 15 -55 6 -14 7 -9 3 15 -4 19 -11 44 -15
55 -6 14 -7 9 -3 -15z"/>
<path d="M15611 14284 c0 -11 3 -14 6 -6 3 7 2 16 -1 19 -3 4 -6 -2 -5 -13z"/>
<path d="M1329 14159 c-33 -67 -59 -123 -57 -125 2 -2 32 53 66 121 34 69 60
125 57 125 -3 0 -32 -54 -66 -121z"/>
<path d="M2673 14190 c-132 -112 -289 -304 -373 -456 -16 -29 -27 -40 -40 -37
-13 3 -1112 -168 -1154 -181 -6 -1 -22 -36 -37 -77 -49 -130 -31 -59 31 126
33 98 58 180 56 183 -3 2 -38 -99 -79 -225 -81 -248 -151 -511 -192 -722 -94
-487 -18 -1576 161 -2310 137 -562 357 -999 658 -1310 434 -446 950 -617 1886
-624 155 -1 198 2 375 32 557 92 923 190 1245 335 l115 52 8 484 c4 267 16
1016 25 1665 l17 1180 -46 130 c-56 157 -88 223 -136 275 l-35 40 -898 0 -899
0 -45 -73 c-109 -175 -156 -320 -156 -482 0 -169 52 -317 163 -467 l42 -58
488 0 487 0 0 -964 0 -964 -32 -11 c-58 -18 -280 -59 -388 -72 -147 -16 -426
-6 -552 20 -178 38 -370 116 -515 208 -157 99 -383 311 -484 453 -260 366
-414 930 -469 1713 -8 119 -7 176 6 300 31 304 87 582 166 825 27 84 46 157
42 164 -4 6 -3 8 3 5 13 -8 47 78 37 95 -4 7 -3 10 1 5 5 -4 41 59 81 140 83
171 159 290 266 419 66 80 109 121 233 228 17 14 28 26 25 26 -3 0 -42 -31
-87 -70z m-447 -596 c-25 -49 -45 -86 -45 -82 -1 12 82 179 86 174 2 -2 -16
-44 -41 -92z m-55 -121 c-12 -20 -14 -14 -5 12 4 9 9 14 11 11 3 -2 0 -13 -6
-23z m-1137 -147 c-3 -15 -8 -25 -11 -23 -2 3 -1 17 3 31 3 15 8 25 11 23 2
-3 1 -17 -3 -31z"/>
<path d="M15601 14244 c0 -11 3 -14 6 -6 3 7 2 16 -1 19 -3 4 -6 -2 -5 -13z"/>
<path d="M16600 14256 c0 -17 43 -176 47 -173 4 5 -36 169 -43 176 -2 2 -4 1
-4 -3z"/>
<path d="M16561 14234 c0 -11 3 -14 6 -6 3 7 2 16 -1 19 -3 4 -6 -2 -5 -13z"/>
<path d="M15591 14204 c0 -11 3 -14 6 -6 3 7 2 16 -1 19 -3 4 -6 -2 -5 -13z"/>
<path d="M16541 14164 c-7 -25 -10 -48 -8 -51 3 -2 10 17 16 43 7 25 10 48 8
51 -3 2 -10 -17 -16 -43z"/>
<path d="M19915 14179 c-9 -17 -15 -33 -13 -35 3 -2 12 12 21 31 21 43 13 47
-8 4z"/>
<path d="M17701 14184 c0 -11 3 -14 6 -6 3 7 2 16 -1 19 -3 4 -6 -2 -5 -13z"/>
<path d="M5136 14171 l-99 -16 74 -54 73 -54 36 40 c19 23 43 55 53 72 l18 31
-28 -1 c-15 -1 -73 -9 -127 -18z"/>
<path d="M15576 14154 c-4 -14 -5 -28 -3 -31 3 -2 8 8 11 23 4 14 5 28 3 31
-3 2 -8 -8 -11 -23z"/>
<path d="M17716 14130 c4 -19 11 -44 15 -55 6 -14 7 -9 3 15 -4 19 -11 44 -15
55 -6 14 -7 9 -3 -15z"/>
<path d="M15561 14094 c0 -11 3 -14 6 -6 3 7 2 16 -1 19 -3 4 -6 -2 -5 -13z"/>
<path d="M16506 14034 c-9 -37 -15 -68 -13 -71 3 -2 12 26 21 63 9 37 15 68
13 71 -3 2 -12 -26 -21 -63z"/>
<path d="M15551 14054 c0 -11 3 -14 6 -6 3 7 2 16 -1 19 -3 4 -6 -2 -5 -13z"/>
<path d="M16651 14054 c0 -11 3 -14 6 -6 3 7 2 16 -1 19 -3 4 -6 -2 -5 -13z"/>
<path d="M17747 14020 c3 -19 12 -53 19 -75 13 -38 13 -38 7 -5 -3 19 -12 53
-19 75 -13 38 -13 38 -7 5z"/>
<path d="M19837 14015 c-24 -50 -20 -58 4 -12 11 22 19 41 17 43 -3 2 -12 -12
-21 -31z"/>
<path d="M15531 13984 c-7 -25 -10 -48 -8 -51 3 -2 10 17 16 43 7 25 10 48 8
51 -3 2 -10 -17 -16 -43z"/>
<path d="M16661 14014 c0 -11 3 -14 6 -6 3 7 2 16 -1 19 -3 4 -6 -2 -5 -13z"/>
<path d="M1247 13985 c-24 -50 -20 -58 4 -12 11 22 19 41 17 43 -3 2 -12 -12
-21 -31z"/>
<path d="M16671 13974 c0 -11 3 -14 6 -6 3 7 2 16 -1 19 -3 4 -6 -2 -5 -13z"/>
<path d="M19802 13935 c-17 -37 -14 -45 4 -12 9 16 14 31 11 33 -2 2 -9 -7
-15 -21z"/>
<path d="M16471 13904 c-7 -25 -10 -48 -8 -51 3 -2 10 17 16 43 7 25 10 48 8
51 -3 2 -10 -17 -16 -43z"/>
<path d="M16685 13923 c3 -16 159 -624 346 -1352 186 -728 339 -1328 339
-1332 0 -5 -359 -9 -800 -9 -535 0 -800 3 -800 10 0 6 128 490 285 1076 175
652 283 1074 280 1087 -4 14 -3 18 3 9 5 -8 28 63 66 204 31 119 55 218 53
220 -2 2 -19 -52 -37 -121 -18 -69 -35 -124 -37 -121 -2 2 5 38 15 80 14 53
16 76 8 76 -13 0 -902 -129 -931 -135 -16 -3 -26 -23 -44 -90 -13 -47 -26 -83
-28 -81 -2 2 13 65 32 141 20 75 35 139 32 141 -8 9 -118 -432 -112 -451 6
-17 5 -18 -5 -5 -9 12 -11 8 -6 -20 3 -19 2 -29 -2 -23 -5 8 -145 -500 -345
-1255 -186 -697 -455 -1708 -598 -2247 l-261 -980 44 -38 c115 -101 276 -175
427 -197 133 -20 313 12 476 85 l50 22 215 796 214 797 1036 0 1036 0 208
-707 c115 -390 218 -737 228 -772 l20 -63 81 -38 c143 -67 245 -93 377 -94
140 -1 225 23 334 94 68 45 189 162 233 225 l21 30 -298 1105 c-164 608 -467
1735 -675 2505 -207 770 -379 1402 -382 1405 -3 3 -3 -7 1 -22 17 -74 14 -76
-9 -6 -24 74 -27 77 -53 72 -15 -2 -240 -35 -500 -73 -261 -38 -476 -71 -478
-74 -3 -2 0 -26 7 -51 6 -26 9 -49 7 -52 -3 -3 -20 54 -38 126 -18 71 -35 130
-37 130 -3 0 -2 -12 2 -27z m1122 -155 c-3 -8 -6 -5 -6 6 -1 11 2 17 5 13 3
-3 4 -12 1 -19z m-1040 -110 c-3 -8 -6 -5 -6 6 -1 11 2 17 5 13 3 -3 4 -12 1
-19z m10 -40 c-3 -8 -6 -5 -6 6 -1 11 2 17 5 13 3 -3 4 -12 1 -19z m10 -40
c-3 -8 -6 -5 -6 6 -1 11 2 17 5 13 3 -3 4 -12 1 -19z m-410 -20 c-3 -8 -6 -5
-6 6 -1 11 2 17 5 13 3 -3 4 -12 1 -19z m420 -20 c-3 -8 -6 -5 -6 6 -1 11 2
17 5 13 3 -3 4 -12 1 -19z m-430 -20 c-3 -8 -6 -5 -6 6 -1 11 2 17 5 13 3 -3
4 -12 1 -19z m-970 -110 c-3 -8 -6 -5 -6 6 -1 11 2 17 5 13 3 -3 4 -12 1 -19z"/>
<path d="M1216 13915 c-9 -26 -7 -32 5 -12 6 10 9 21 6 23 -2 3 -7 -2 -11 -11z"/>
<path d="M15511 13904 c0 -11 3 -14 6 -6 3 7 2 16 -1 19 -3 4 -6 -2 -5 -13z"/>
<path d="M19776 13875 c-9 -26 -7 -32 5 -12 6 10 9 21 6 23 -2 3 -7 -2 -11
-11z"/>
<path d="M1196 13865 c-9 -26 -7 -32 5 -12 6 10 9 21 6 23 -2 3 -7 -2 -11 -11z"/>
<path d="M15486 13814 c-9 -37 -15 -68 -13 -71 3 -2 12 26 21 63 9 37 15 68
13 71 -3 2 -12 -26 -21 -63z"/>
<path d="M19751 13809 c-6 -18 -9 -34 -7 -36 2 -2 9 10 15 28 6 18 9 34 7 36
-2 2 -9 -10 -15 -28z"/>
<path d="M1171 13799 c-6 -18 -9 -34 -7 -36 2 -2 9 10 15 28 6 18 9 34 7 36
-2 2 -9 -10 -15 -28z"/>
<path d="M7608 13558 c-2 -231 -3 -234 -5 -60 -2 100 -7 182 -11 182 -4 0
-241 -53 -527 -119 l-520 -118 -5 -74 -6 -74 -6 75 c-3 41 -3 -958 -1 -2220
l4 -2295 57 -55 c32 -30 102 -95 156 -144 l97 -90 1370 -9 1370 -9 59 52 60
52 0 443 0 443 -56 51 -56 51 -989 0 -989 0 0 1015 0 1015 783 0 782 0 63 51
63 50 -7 457 c-7 440 -8 458 -28 489 l-21 33 -818 0 -819 0 8 525 c4 289 4
525 0 525 -3 0 -7 -109 -8 -242z"/>
<path d="M19691 13635 c-23 -70 -41 -133 -40 -139 0 -6 20 50 44 124 24 74 42
136 40 138 -2 2 -22 -53 -44 -123z"/>
<path d="M33560 13382 c-80 -92 -132 -150 -192 -213 -37 -39 -54 -75 -23 -49
15 12 20 4 16 -22 0 -4 27 -7 62 -5 34 1 74 -1 90 -6 24 -6 30 -3 47 25 19 32
20 32 20 8 0 -14 5 -32 11 -40 8 -11 9 -6 6 21 -3 20 -1 41 5 47 5 5 16 59 24
118 8 60 17 128 20 150 4 23 2 44 -3 47 -5 3 -43 -33 -83 -81z"/>
<path d="M32535 13260 c-4 -6 3 -27 16 -48 36 -61 250 -433 282 -489 15 -29
27 -59 25 -67 -2 -8 -66 -81 -144 -162 -77 -82 -165 -176 -194 -209 -30 -33
-67 -73 -83 -88 -48 -45 -26 -52 94 -28 57 11 133 25 169 31 36 6 134 24 218
41 85 16 162 27 171 24 10 -3 26 -22 38 -43 11 -20 59 -107 108 -192 48 -85
112 -199 142 -252 31 -54 61 -98 68 -98 12 0 38 214 66 535 7 72 15 133 18
137 3 4 148 33 321 63 321 58 370 69 354 85 -10 9 -237 106 -343 146 -60 23
-88 24 -76 3 4 -5 -8 -9 -26 -9 -24 0 -41 -9 -68 -38 -133 -141 -400 -93 -495
88 -48 91 -44 230 7 288 11 12 16 22 10 22 -6 0 -13 -7 -17 -15 -8 -23 -28
-19 -103 21 -71 37 -541 264 -548 264 -2 0 -7 -5 -10 -10z"/>
<path d="M33275 13070 c-3 -5 -1 -10 4 -10 6 0 11 5 11 10 0 6 -2 10 -4 10 -3
0 -8 -4 -11 -10z"/>
<path d="M30263 10858 c-102 -118 -114 -134 -90 -125 12 4 17 1 17 -10 0 -13
10 -15 64 -11 55 5 66 3 69 -11 2 -9 7 2 11 24 4 22 11 58 16 80 16 76 23 155
12 155 -5 0 -50 -46 -99 -102z"/>
<path d="M29596 10822 c-2 -4 45 -94 105 -199 60 -106 109 -201 109 -213 0
-11 -24 -44 -52 -73 -143 -145 -250 -269 -241 -278 6 -6 87 5 232 31 122 22
226 38 231 35 4 -3 20 -26 35 -53 130 -225 209 -352 219 -349 13 4 44 276 45
410 1 45 3 49 34 61 17 8 120 28 227 46 233 37 228 36 209 55 -13 13 -225 104
-279 120 -22 7 -23 6 -11 -9 9 -10 9 -16 2 -16 -6 0 -35 -17 -65 -37 -62 -41
-80 -47 -151 -46 -126 1 -228 117 -211 240 3 25 1 45 -5 49 -6 3 -4 11 7 18
13 10 14 13 2 13 -8 0 -105 45 -216 101 -200 102 -217 109 -226 94z"/>
<path d="M30110 10685 c-11 -13 -10 -14 4 -9 9 3 16 10 16 15 0 13 -6 11 -20
-6z"/>
<path d="M24889 7909 c-35 -40 -76 -84 -91 -98 -14 -14 -65 -71 -112 -125 -48
-55 -95 -105 -105 -112 -10 -7 -24 -26 -30 -43 -7 -16 -21 -31 -31 -34 -10 -2
-23 -14 -29 -25 -10 -20 -10 -20 13 -8 14 7 35 24 46 37 l21 24 -6 -25 c-4
-14 -14 -32 -24 -40 -9 -8 -20 -23 -24 -33 -6 -16 -5 -16 25 -1 45 24 210 31
266 11 44 -15 55 -11 57 26 1 10 7 23 14 30 11 10 12 8 7 -9 -4 -12 -2 -32 3
-45 10 -25 11 -22 17 36 2 17 7 55 12 85 6 30 19 127 31 215 11 88 23 170 27
183 12 42 -22 23 -87 -49z"/>
<path d="M23386 7701 c-3 -4 3 -23 12 -42 20 -38 315 -561 368 -652 19 -32 34
-60 34 -63 0 -2 12 -23 26 -45 16 -26 24 -49 20 -63 -3 -11 -43 -59 -88 -106
-45 -47 -122 -130 -172 -185 -50 -55 -98 -107 -108 -115 -9 -8 -57 -62 -108
-118 -50 -57 -107 -120 -126 -139 -37 -37 -40 -59 -8 -57 10 1 226 41 479 88
l460 87 20 -25 c11 -14 32 -47 46 -73 38 -71 230 -408 326 -570 45 -79 83
-147 83 -152 0 -15 30 -35 40 -25 7 8 34 226 91 754 11 102 21 190 23 195 2 6
46 18 97 28 52 10 117 22 144 27 65 13 170 31 450 80 127 22 240 43 253 45 39
9 24 31 -40 57 -35 14 -160 69 -279 121 -241 107 -276 119 -266 93 5 -13 -1
-16 -33 -16 -22 0 -40 -4 -40 -9 0 -12 -90 -111 -101 -111 -5 0 -18 -9 -29
-20 -11 -11 -32 -22 -47 -25 -16 -4 -36 -11 -46 -16 -31 -17 -170 -20 -233 -6
-69 16 -148 55 -186 91 -15 14 -32 26 -38 26 -5 0 -10 7 -10 15 0 7 -6 18 -13
22 -20 12 -77 99 -77 118 0 8 -7 27 -16 40 -27 41 -17 192 17 261 18 36 7 68
-26 75 -16 3 -73 27 -125 54 -92 46 -760 365 -766 365 -2 0 -5 -4 -8 -9z"/>
<path d="M24430 7405 c-11 -13 -10 -14 4 -9 9 3 16 10 16 15 0 13 -6 11 -20
-6z"/>
<path d="M24355 7330 c-3 -5 -1 -10 4 -10 6 0 11 5 11 10 0 6 -2 10 -4 10 -3
0 -8 -4 -11 -10z"/>
</g>
</svg>
